<svg width="140" height="49" viewBox="0 0 140 49" fill="none" xmlns="http://www.w3.org/2000/svg">
<g clip-path="url(#clip0_2_50)">
<path d="M38.0223 14.0183L38.0718 14.1881C38.5358 14.1503 39.0074 14.0711 39.4752 13.9428C43.3699 12.8564 45.6368 8.8463 44.5414 4.98334L38.3494 6.71111C39.0378 9.15564 38.9199 11.6945 38.0223 14.0183Z" fill="#303036"/>
<path d="M0 23.8983C0.0532478 25.1168 0.220598 26.3277 0.498248 27.5274C0.574316 27.848 0.650384 28.1724 0.741666 28.4931C1.02692 29.4966 1.38444 30.4661 1.81043 31.3979C2.48363 32.8729 3.32799 34.2498 4.32829 35.506C5.94855 37.5431 7.97196 39.2634 10.3225 40.5724C15.0387 43.198 20.5042 43.8431 25.7073 42.3907L26.3387 42.2134C21.1242 41.0364 16.697 37.1433 15.149 31.6883L16.9024 31.1979C18.8802 38.1731 26.2094 42.2511 33.2381 40.2895C33.9113 40.1008 34.5579 39.8632 35.1778 39.584C35.9271 39.2445 36.6345 38.8371 37.2925 38.3731C39.411 36.8867 41.0237 34.8194 41.9631 32.4692C42.0316 32.2995 42.0962 32.1259 42.1571 31.9524C42.3511 31.4054 42.507 30.8433 42.6249 30.2699C43.0319 28.3045 42.9938 26.2183 42.4195 24.1548C42.4119 24.1322 42.4081 24.1095 42.4005 24.0869C42.313 23.7813 42.2141 23.4833 42.1076 23.1928C41.4915 21.5028 40.5444 20.0127 39.3616 18.7716C38.9622 18.3528 38.5362 17.9605 38.0836 17.6021C37.7033 17.3003 37.3077 17.0136 36.897 16.7571C36.8133 16.7043 36.7258 16.6515 36.6383 16.6024C36.0146 17.4852 35.2805 18.2661 34.4514 18.9375C33.2152 19.941 31.7699 20.6917 30.1877 21.1331C29.5411 21.3142 28.8946 21.4273 28.248 21.499C27.8296 21.5443 27.415 21.5707 27.0005 21.5707C25.6198 21.5707 24.2696 21.3255 23.0031 20.869C22.8433 20.9784 22.6836 21.0878 22.5238 21.1935C21.9153 21.5896 21.2877 21.9593 20.6373 22.3025C19.9679 22.6572 19.2795 22.9816 18.5721 23.2758C17.6707 23.6493 16.7388 23.9775 15.7728 24.2453L10.197 25.7996C6.64077 26.788 2.8906 26.0599 0 23.8983ZM20.6792 30.1416C20.4244 29.606 20.2076 29.0401 20.0402 28.4478L19.793 27.5802L29.2369 24.947L30.1877 24.6829C32.1883 24.1246 34.2384 24.6754 35.6799 25.958C35.8472 26.1089 36.007 26.2711 36.1591 26.4409C36.722 27.0747 37.1594 27.8329 37.4066 28.7006C37.8288 30.1945 37.6424 31.76 36.8779 33.1143C36.1134 34.4686 34.8621 35.4419 33.356 35.8644C32.3823 36.136 31.401 36.2643 30.4349 36.2643C26.3158 36.2605 22.4744 33.8914 20.6792 30.1416Z" fill="#303036"/>
<path d="M38.0231 14.0184L38.0725 14.1881C38.0307 14.1919 37.9888 14.1957 37.9508 14.1957C37.9736 14.1391 38.0002 14.0787 38.0231 14.0184Z" fill="#303036"/>
<path d="M30.6819 26.4183C31.61 26.158 32.5532 26.2485 33.3747 26.5993C33.6942 26.7351 33.9909 26.9162 34.2647 27.1313C34.9151 27.6368 35.4172 28.3422 35.6568 29.1872C35.9497 30.2171 35.8203 31.296 35.2917 32.2278C34.763 33.1596 33.9034 33.8311 32.8651 34.1215C28.7003 35.2835 24.3797 33.3143 22.4627 29.6437C22.322 29.3758 22.1965 29.1005 22.0824 28.8175L29.7311 26.6823L30.6819 26.4183Z" fill="#303036"/>
<path d="M24.8977 47.6042C15.4767 47.6042 7.84322 47.9173 7.84322 48.3021C7.84322 48.6869 15.4805 49 24.8977 49C34.3188 49 41.9523 48.6869 41.9523 48.3021C41.9561 47.9135 34.3188 47.6042 24.8977 47.6042Z" fill="#303036"/>
<path d="M75.9163 17.655C73.2501 17.655 71.6793 18.5188 71.1696 18.8546V23.2193H66.7539V14.2786H71.1696V17.3607C71.744 15.9725 73.3452 14.007 75.9163 14.007V17.655Z" fill="#303036"/>
<path d="M95.8348 18.7489C95.8348 21.7405 92.948 23.472 88.9734 23.472C85.4933 23.472 83.0401 22.2799 82.1615 20.4013C82.1197 22.1517 81.9105 23.2192 81.9105 23.2192H77.7534V10.6307H82.1691V17.0702C83.0553 15.1915 85.5047 14.007 88.9734 14.007C92.9404 14.007 95.8348 15.6103 95.8348 18.7489ZM91.2555 18.7489C91.2555 17.4361 89.8216 16.7986 87.319 16.7986C84.5158 16.7986 82.1691 17.1985 82.1691 18.7489C82.1691 20.2805 84.5158 20.6993 87.319 20.6993C89.8216 20.703 91.2555 20.0429 91.2555 18.7489Z" fill="#303036"/>
<path d="M116.031 18.7489C116.031 21.7405 113.144 23.472 109.17 23.472C105.689 23.472 103.236 22.2799 102.358 20.4013C102.316 22.1517 102.107 23.2192 102.107 23.2192H97.9495V10.6307H102.365V17.0702C103.251 15.1915 105.701 14.007 109.17 14.007C113.137 14.007 116.031 15.6103 116.031 18.7489ZM111.452 18.7489C111.452 17.4361 110.018 16.7986 107.515 16.7986C104.712 16.7986 102.365 17.1985 102.365 18.7489C102.365 20.2805 104.712 20.6993 107.515 20.6993C110.018 20.703 111.452 20.0429 111.452 18.7489Z" fill="#303036"/>
<path d="M126.665 17.655C123.999 17.655 122.428 18.5188 121.919 18.8546V23.2193H117.503V14.2786H121.919V17.3607C122.493 15.9725 124.094 14.007 126.665 14.007V17.655Z" fill="#303036"/>
<path d="M84.6529 32.5258V45.1106H80.4958C80.4958 45.1106 80.2904 44.0468 80.2448 42.2926C79.3624 44.1751 76.913 45.3634 73.4329 45.3634C69.4621 45.3634 66.5715 43.6318 66.5715 40.6403C66.5715 37.4979 69.4659 35.8984 73.4329 35.8984C76.9016 35.8984 79.351 37.0829 80.2372 38.9616V32.5258H84.6529ZM80.2372 40.6441C80.2372 39.0936 77.8905 38.6937 75.0873 38.6937C72.5847 38.6937 71.1508 39.3313 71.1508 40.6441C71.1508 41.938 72.5847 42.5944 75.0873 42.5944C77.8905 42.5944 80.2372 42.1757 80.2372 40.6441Z" fill="#303036"/>
<path d="M103.655 36.1737V45.1106H99.2431V42.0247C98.5661 43.3941 96.4286 45.386 92.9903 45.386C89.7536 45.386 86.9581 44.2354 86.9581 40.4064V36.1737H91.3738V39.9499C91.3738 41.9568 92.3665 42.4661 94.6828 42.4661C97.0752 42.4661 98.7144 41.1608 99.2431 40.678V36.1737H103.655Z" fill="#303036"/>
<path d="M114.046 45.386C108.345 45.386 105.127 44.126 105.127 40.663C105.127 37.1999 108.345 35.9022 114.046 35.9022C119.748 35.9022 122.068 37.4489 122.102 40.0518H118.051C117.656 39.3087 116.252 38.7692 114.046 38.7692C111.399 38.7692 109.631 39.2596 109.631 40.6667C109.631 42.0738 111.361 42.5265 114.046 42.5265C116.252 42.5265 117.66 41.9758 118.082 41.2288H122.125C122.129 43.8582 119.748 45.386 114.046 45.386Z" fill="#303036"/>
<path d="M123.779 32.5258H128.195V45.1144H123.779V32.5258ZM140 45.1106L134.409 45.1483L128.271 40.0292L133.527 36.17H139.377L133.74 40.0669L140 45.1106Z" fill="#303036"/>
<path d="M27.008 0C21.5121 0 17.0544 4.42128 17.0544 9.8762C17.0544 15.3311 21.512 19.7524 27.0118 19.7524C32.5115 19.7524 36.9691 15.3311 36.9691 9.8762C36.9691 4.42128 32.5077 0 27.008 0ZM31.245 12.283C29.2482 12.283 27.6279 10.676 27.6279 8.69543C27.6279 6.71491 29.2482 5.10786 31.245 5.10786C33.2418 5.10786 34.8621 6.71491 34.8621 8.69543C34.8621 10.676 33.2418 12.283 31.245 12.283Z" fill="#303036"/>
<path d="M32.7549 7.74476C32.6065 8.14464 32.2224 8.42757 31.766 8.42757C31.1803 8.42757 30.7086 7.95979 30.7086 7.37883C30.7086 7.23171 30.7391 7.09213 30.7961 6.96387C30.0164 7.16003 29.4383 7.85416 29.4383 8.68787C29.4383 9.67247 30.2446 10.4722 31.2373 10.4722C32.23 10.4722 33.0363 9.67247 33.0363 8.68787C33.0325 8.3408 32.926 8.01637 32.7549 7.74476Z" fill="#303036"/>
</g>
<defs>
<clipPath id="clip0_2_50">
<rect width="140" height="49" fill="white"/>
</clipPath>
</defs>
</svg>
